<svg width="208" height="103" viewBox="0 0 208 103" fill="none" xmlns="http://www.w3.org/2000/svg">
<path d="M203.428 60.1372H102.571C95.9405 70.7483 89.6846 80.7308 89.4451 81.1049C89.4451 81.1149 89.4402 81.1249 89.4302 81.1349V83.4546H92.1391C94.3241 83.4546 96.0902 85.2356 96.0902 87.4057V100.756C96.0902 101.564 95.8507 102.312 95.4316 102.941H203.428C205.479 102.941 207.14 101.265 207.14 99.2141V63.8488C207.14 61.7985 205.479 60.1372 203.428 60.1372Z" fill="#231F20"/>
<path d="M113.062 64.8071C112.104 64.3431 111.026 64.1187 109.874 64.1187C108.527 64.1187 107.33 64.3731 106.342 64.8819C105.369 65.3758 104.531 66.0643 103.903 66.9024C103.244 67.7555 102.735 68.7582 102.406 69.9256C102.077 71.078 101.912 72.3052 101.912 73.5773C101.912 75.7175 102.256 77.5135 102.93 78.9502C103.618 80.4019 104.965 81.5843 106.956 82.4523L110.158 83.8592C110.697 84.0986 111.131 84.3381 111.445 84.5476C111.745 84.7422 111.984 84.9816 112.164 85.2809C112.314 85.5803 112.418 86.0143 112.478 86.5381C112.538 87.0919 112.568 87.8103 112.568 88.6633C112.568 89.4116 112.538 90.0851 112.493 90.6838C112.463 91.2525 112.329 91.7464 112.119 92.1355C111.909 92.5246 111.625 92.824 111.251 93.0335C110.877 93.243 110.323 93.3478 109.62 93.3478C108.572 93.3478 107.854 93.0484 107.435 92.4199C106.986 91.7613 106.761 91.028 106.761 90.2198V88.4089H101.688V90.4892C101.688 91.6566 101.897 92.7491 102.301 93.7369C102.705 94.7247 103.274 95.5927 103.962 96.341C104.666 97.0893 105.504 97.673 106.477 98.107C107.45 98.5261 108.497 98.7356 109.62 98.7356C111.086 98.7356 112.358 98.4662 113.391 97.9574C114.424 97.4336 115.277 96.7002 115.92 95.7873C116.519 94.9192 116.968 93.8417 117.237 92.5995C117.492 91.3872 117.627 90.0402 117.627 88.6184C117.627 87.3912 117.567 86.2837 117.462 85.3109C117.342 84.3381 117.103 83.4401 116.773 82.6618C116.399 81.8986 115.89 81.2401 115.247 80.6564C114.618 80.0877 113.78 79.5938 112.763 79.1747L109.335 77.723C108.782 77.4835 108.333 77.2441 108.018 77.0046C107.719 76.7801 107.494 76.5107 107.345 76.2114C107.18 75.9121 107.09 75.5529 107.045 75.1488C107.001 74.7148 106.986 74.176 106.986 73.5324C106.986 72.9936 107.03 72.4549 107.105 71.961C107.195 71.4821 107.345 71.048 107.554 70.6888C107.764 70.3446 108.033 70.0603 108.377 69.8358C108.707 69.6113 109.156 69.5065 109.709 69.5065C110.742 69.5065 111.46 69.8507 111.88 70.5541C112.329 71.3025 112.568 72.2154 112.568 73.2481V74.625H117.627V71.9759C117.627 69.9705 116.923 68.1595 115.531 66.603C114.843 65.8697 114.005 65.2561 113.062 64.8071Z" fill="#FEFEFE"/>
<path fill-rule="evenodd" clip-rule="evenodd" d="M136.364 68.9079C136.828 69.9705 137.053 71.2127 137.053 72.5896V90.2647C137.053 91.7015 136.828 92.9586 136.364 94.0063C135.915 95.039 135.317 95.907 134.583 96.5954C133.835 97.2989 132.982 97.8377 132.054 98.1968C131.141 98.556 130.198 98.7356 129.255 98.7356C128.313 98.7356 127.37 98.556 126.457 98.1968C125.529 97.8377 124.691 97.2989 123.957 96.5805C123.209 95.907 122.595 95.039 122.146 94.0063C121.697 92.9586 121.458 91.7015 121.458 90.2647V72.5896C121.458 71.2127 121.697 69.9705 122.146 68.9079C122.595 67.8303 123.209 66.9323 123.972 66.2139C124.691 65.5405 125.529 65.0166 126.457 64.6574C128.298 63.9391 130.213 63.9391 132.054 64.6574C132.982 65.0166 133.835 65.5405 134.583 66.2139C135.317 66.9323 135.915 67.8453 136.364 68.9079ZM127.34 70.2548C126.801 70.7337 126.532 71.527 126.532 72.5896V90.2647C126.532 91.3273 126.801 92.1205 127.34 92.5995C127.879 93.1083 128.507 93.3478 129.255 93.3478C130.004 93.3478 130.632 93.1083 131.186 92.5995C131.71 92.1205 131.979 91.3273 131.979 90.2647V72.5896C131.979 71.527 131.71 70.7337 131.186 70.2548C130.632 69.746 130.004 69.5065 129.255 69.5065C128.507 69.5065 127.879 69.746 127.34 70.2548Z" fill="#FEFEFE"/>
<path d="M152.723 83.2758L146.392 64.4033H141.588V98.4516H146.646V79.5941L153.067 98.4516H157.781V64.4033H152.723V83.2758Z" fill="#FEFEFE"/>
<path d="M172.569 90.1603C172.569 91.2678 172.344 92.0909 171.866 92.5998C171.402 93.0936 170.818 93.3481 170.114 93.3481C169.411 93.3481 168.827 93.0936 168.363 92.5998C167.884 92.0909 167.645 91.2678 167.645 90.1603V64.4033H162.586V90.6392C162.586 91.7766 162.781 92.8243 163.17 93.7821C163.559 94.7399 164.113 95.593 164.816 96.3413C165.505 97.0896 166.313 97.6733 167.196 98.0924C168.094 98.5264 169.082 98.7359 170.114 98.7359C171.147 98.7359 172.135 98.5264 173.048 98.0924C173.946 97.6733 174.769 97.0896 175.457 96.3413C176.161 95.593 176.7 94.7399 177.074 93.7821C177.448 92.8243 177.642 91.7617 177.642 90.6392V64.4033H172.569V90.1603Z" fill="#FEFEFE"/>
<path d="M197.682 74.625V71.9759C197.682 69.9705 196.979 68.1595 195.587 66.603C194.884 65.8697 194.045 65.2561 193.103 64.8071C192.145 64.3431 191.082 64.1187 189.93 64.1187C188.568 64.1187 187.385 64.3731 186.398 64.8819C185.41 65.3758 184.587 66.0643 183.943 66.9024C183.285 67.7555 182.776 68.7582 182.447 69.9256C182.117 71.078 181.953 72.3052 181.953 73.5773C181.953 75.7175 182.297 77.5135 182.97 78.9502C183.659 80.4019 185.006 81.5843 186.996 82.4523L190.199 83.8592C190.738 84.0986 191.172 84.3381 191.501 84.5476C191.786 84.7422 192.04 84.9816 192.205 85.2809C192.354 85.5803 192.474 86.0143 192.519 86.5381C192.579 87.0919 192.609 87.8103 192.609 88.6633C192.609 89.4116 192.594 90.0851 192.549 90.6838C192.504 91.2525 192.369 91.7464 192.16 92.1355C191.95 92.5246 191.666 92.824 191.292 93.0335C190.917 93.243 190.364 93.3478 189.66 93.3478C188.613 93.3478 187.909 93.0484 187.475 92.4199C187.026 91.7613 186.802 91.028 186.802 90.2198V88.4089H181.743V90.4892C181.743 91.6566 181.938 92.7491 182.357 93.7369C182.761 94.7247 183.315 95.5927 184.003 96.341C184.706 97.0893 185.545 97.673 186.517 98.107C187.49 98.5261 188.553 98.7356 189.66 98.7356C191.142 98.7356 192.399 98.4662 193.432 97.9574C194.464 97.4336 195.318 96.7002 195.961 95.7873C196.56 94.9192 197.009 93.8417 197.278 92.5995C197.548 91.3872 197.682 90.0402 197.682 88.6184C197.682 87.3912 197.622 86.2837 197.503 85.3109C197.383 84.3381 197.158 83.4401 196.814 82.6618C196.455 81.8986 195.931 81.2401 195.303 80.6564C194.659 80.0877 193.821 79.5938 192.803 79.1747L189.391 77.723C188.822 77.4835 188.388 77.2441 188.074 77.0046C187.775 76.7851 187.545 76.5207 187.385 76.2114C187.236 75.9121 187.131 75.5529 187.086 75.1488C187.041 74.7148 187.026 74.176 187.026 73.5324C187.026 72.9936 187.071 72.4549 187.161 71.961C187.236 71.4821 187.385 71.048 187.595 70.6888C187.804 70.3446 188.089 70.0603 188.433 69.8358C188.747 69.6113 189.196 69.5065 189.75 69.5065C190.783 69.5065 191.501 69.8507 191.935 70.5541C192.384 71.3025 192.609 72.2154 192.609 73.2481V74.625H197.682Z" fill="#FEFEFE"/>
<g opacity="0.3">
<path d="M98.98 88.0791V100.037L200.272 100.486L200.87 90.5934C161.18 97.3881 126.772 94.5146 98.98 88.0791Z" fill="#231F20"/>
</g>
<path d="M88.0239 80.1909C88.4878 79.4575 115.981 35.5016 119.857 29.2906C120.156 28.8117 120.321 28.2579 120.321 27.7042V20.8945H0.860352V27.2851C0.860352 27.8389 1.02498 28.3926 1.30934 28.8566C5.1856 35.0975 32.6936 79.4575 33.1576 80.1909C33.2374 80.3106 33.3371 80.4603 33.4569 80.6399V85.1597H29.1915C27.9493 85.1597 26.9466 86.1624 26.9466 87.4046V100.755C26.9466 101.997 27.9493 102.999 29.1915 102.999H92.1396C93.3818 102.999 94.3995 101.997 94.3995 100.755V87.4046C94.3995 86.1624 93.3818 85.1597 92.1396 85.1597H87.7395V80.6399C87.8493 80.4603 87.944 80.3106 88.0239 80.1909Z" fill="#231F20"/>
<path d="M113.541 27.0915H7.65479V24.9663H113.541V27.0915Z" fill="#FEFEFE"/>
<path d="M110.338 30.3989H108.542H83.6831H81.8871V32.1949V33.3622V35.0684L83.5933 35.1582C83.8427 35.1682 84.0622 35.1831 84.2518 35.2031C83.2042 36.8195 78.9388 43.5543 60.5901 72.6786C42.2415 43.5543 37.9761 36.8195 36.9434 35.2031C37.123 35.1831 37.3426 35.1682 37.602 35.1582L39.2932 35.0684V33.3622V32.1949V30.3989H37.4972H12.6382H10.8423V32.1949V33.3622V35.0235L12.5035 35.1432C13.1621 35.2031 13.3566 35.3528 13.3566 35.3528C13.3865 35.3677 13.7607 35.682 14.6287 37.0439C14.7335 37.1936 15.3471 38.1814 16.3349 39.7528C21.7976 48.4931 38.4251 75.0732 39.0986 76.1209C39.2782 76.4052 39.5625 76.8392 39.8918 77.3331C40.3408 77.9916 41.134 79.1889 41.7476 80.1767L40.251 80.3863V81.9427V83.1101V84.9061H42.0469H79.1334H80.9293V83.1101V81.9427V80.3863L79.4327 80.1767C80.0463 79.1889 80.8395 77.9916 81.2885 77.3331C81.6177 76.8392 81.9021 76.4052 82.0817 76.1209C82.7552 75.0732 99.3677 48.5231 104.83 39.7977C105.818 38.1964 106.447 37.1936 106.552 37.0439C107.42 35.682 107.794 35.3677 107.839 35.3378C107.839 35.3378 108.033 35.2031 108.677 35.1432L110.338 35.0235V33.3622V32.1949V30.3989Z" fill="#FEFEFE"/>
<path d="M79.2092 98.4354H53.9013C43.9936 98.4354 42.0779 88.7972 42.0181 87.7944C54.4101 87.7944 66.8072 87.7944 79.2092 87.7944V98.4354Z" fill="#FEFEFE"/>
<path d="M60.0074 91.8052L60.7408 89.6201L61.519 91.7902L63.8238 91.8052L61.998 93.212L62.6864 95.4121L60.7857 94.125L58.8999 95.457L59.5435 93.242L57.7026 91.8651L60.0074 91.8052Z" fill="#808284"/>
<path d="M69.7653 91.8052L70.4986 89.6201L71.2768 91.7902L73.5817 91.8052L71.7558 93.212L72.4442 95.4121L70.5435 94.125L68.6578 95.457L69.3013 93.242L67.4604 91.8651L69.7653 91.8052Z" fill="#808284"/>
<path d="M50.2487 91.8052L50.982 89.6201L51.7602 91.7902L54.0651 91.8052L52.2392 93.212L52.9276 95.4121L51.0269 94.125L49.1411 95.457L49.7847 93.242L47.9438 91.8651L50.2487 91.8052Z" fill="#808284"/>
<path d="M108.543 32.1943V33.3617C107.725 33.4216 107.116 33.6161 106.717 33.9454C106.308 34.2647 105.749 34.9731 105.041 36.0706C104.637 36.7141 81.3642 73.9203 80.571 75.1625C79.7778 76.3897 76.8594 80.6551 76.8594 81.149C76.8594 81.4034 77.0091 81.4333 77.3084 81.5531C77.6177 81.6828 78.2263 81.8125 79.1343 81.9422V83.1096H42.0479V81.9422C42.9558 81.8125 43.5645 81.6828 43.8738 81.5531C44.1731 81.4333 44.3227 81.4034 44.3227 81.149C44.3227 80.6551 41.4043 76.3897 40.6111 75.1625C39.8179 73.9203 16.5603 36.7141 16.1562 36.0706C15.4379 34.9731 14.8791 34.2647 14.48 33.9454C14.0709 33.6161 13.4573 33.4216 12.6392 33.3617V32.1943H37.4981V33.3617C36.2809 33.4216 35.4677 33.5513 35.0586 33.7508C34.6595 33.9404 34.46 34.1948 34.46 34.5141C34.46 34.7137 34.6895 35.1177 35.1484 35.7264C35.4926 36.1903 52.3447 62.965 60.5911 76.0455C68.8375 62.965 85.7045 36.1903 86.0487 35.7264C86.4977 35.1177 86.7222 34.7137 86.7222 34.5141C86.7321 34.1948 86.5326 33.9404 86.1235 33.7508C85.7144 33.5513 84.9013 33.4216 83.684 33.3617V32.1943H108.543Z" fill="#EC1C24"/>
<path opacity="0.3" d="M85.1645 99.9768V84.4418C44.561 72.4837 21.4531 54.1201 21.4531 54.1201L39.7718 86.8513H80.7345V99.9618L85.1645 99.9768Z" fill="#231F20"/>
<path d="M60.5899 76.0456C60.5001 75.9059 60.4103 75.7612 60.3205 75.6115C48.0032 70.4482 38.4099 65.1651 31.8247 61.1392C36.4044 68.4577 40.2956 74.6687 40.6099 75.1626C41.4031 76.3898 44.3215 80.6552 44.3215 81.1491C44.3215 81.4035 44.1719 81.4334 43.8726 81.5531C43.5632 81.6829 42.9546 81.8126 42.0467 81.9423V83.1096H79.1331V82.5858C72.4731 80.4307 66.3369 78.1259 60.7545 75.7911C60.6946 75.8809 60.6398 75.9657 60.5899 76.0456Z" fill="#C9171D"/>
<path d="M49.6951 13.1427C49.9196 8.00924 47.4651 2.20233 46.5073 0.136989C46.4624 0.047191 46.3576 -0.0126743 46.2528 0.00229198C46.1331 0.00229198 46.0433 0.0920898 46.0283 0.21182C45.5943 2.42683 44.6215 8.65279 46.0732 13.5917C46.0732 13.5917 46.8515 16.5999 48.2134 16.4203C48.2334 16.4203 48.2483 16.4153 48.2583 16.4053C48.2683 16.4153 48.2783 16.4203 48.2882 16.4203C49.6651 16.2557 49.6951 13.1427 49.6951 13.1427Z" fill="white"/>
<path d="M24.0727 12.2891C23.1747 7.23053 19.523 2.08214 18.1461 0.286185C18.0862 0.211354 17.9665 0.166455 17.8617 0.196388C17.8617 0.206365 17.8617 0.211354 17.8617 0.211354C17.757 0.241286 17.6821 0.34605 17.6821 0.450814C17.742 2.72569 18.1461 9.01152 20.6305 13.5164C20.6305 13.5164 22.0373 16.2851 23.3394 15.8212C23.3494 15.8112 23.3593 15.8012 23.3693 15.7912C23.3893 15.7912 23.4042 15.7912 23.4142 15.7912C24.7163 15.3273 24.0727 12.2891 24.0727 12.2891Z" fill="white"/>
<path d="M61.8027 14.5942C62.3714 11.4812 61.2489 7.75463 60.7999 6.4376C60.77 6.36277 60.7101 6.31787 60.6353 6.31787C60.5605 6.31787 60.4856 6.36277 60.4707 6.4376C60.0067 7.75463 58.8543 11.4812 59.4081 14.5942C59.4081 14.5942 59.6625 16.48 60.5754 16.4949C60.5754 16.4949 60.5804 16.4899 60.5904 16.48C60.6004 16.4899 60.6104 16.4949 60.6203 16.4949C61.5333 16.4949 61.8027 14.5942 61.8027 14.5942Z" fill="white"/>
<path d="M36.8237 14.5648C36.6142 11.6913 34.7583 8.66808 34.0549 7.62044C34.025 7.56057 33.9651 7.54561 33.9053 7.56057C33.8953 7.56057 33.8903 7.56057 33.8903 7.56057C33.8304 7.57554 33.7855 7.62044 33.7706 7.69527C33.6658 8.95244 33.5161 12.4845 34.7134 15.1036C34.7134 15.1036 35.372 16.705 36.1801 16.4954C36.1901 16.4954 36.1951 16.4954 36.1951 16.4954C36.2051 16.4954 36.2151 16.4954 36.2251 16.4954C37.0183 16.2859 36.8237 14.5648 36.8237 14.5648Z" fill="white"/>
<path d="M9.63062 15.836C8.76258 13.0822 6.29315 10.5529 5.3802 9.68488C5.33531 9.63998 5.26047 9.63998 5.20061 9.65495C5.14074 9.69985 5.09584 9.75971 5.11081 9.81958C5.29041 11.0767 5.93396 14.5639 7.68501 16.8388C7.68501 16.8388 8.68775 18.2456 9.42109 17.8714C9.43107 17.8714 9.44105 17.8664 9.45103 17.8565C9.45103 17.8565 9.45602 17.8565 9.46599 17.8565C10.1993 17.4673 9.63062 15.836 9.63062 15.836Z" fill="white"/>
<path d="M71.5755 13.1427C71.351 8.00924 73.8054 2.20233 74.7633 0.136989C74.8082 0.047191 74.898 -0.0126743 75.0177 0.00229198C75.1374 0.00229198 75.2272 0.0920898 75.2422 0.21182C75.6762 2.42683 76.649 8.65279 75.1973 13.5917C75.1973 13.5917 74.4191 16.5999 73.0422 16.4203C73.0322 16.4203 73.0222 16.4153 73.0122 16.4053C73.0022 16.4153 72.9873 16.4203 72.9673 16.4203C71.6054 16.2557 71.5755 13.1427 71.5755 13.1427Z" fill="white"/>
<path d="M97.1976 12.2891C98.0956 7.23053 101.747 2.08214 103.124 0.286185C103.184 0.211354 103.304 0.166455 103.409 0.196388C103.409 0.206365 103.409 0.211354 103.409 0.211354C103.513 0.241286 103.588 0.34605 103.588 0.450814C103.528 2.72569 103.124 9.01152 100.64 13.5164C100.64 13.5164 99.233 16.2851 97.931 15.8212C97.911 15.8112 97.896 15.8012 97.8861 15.7912C97.8761 15.7912 97.8661 15.7912 97.8561 15.7912C96.5541 15.3273 97.1976 12.2891 97.1976 12.2891Z" fill="white"/>
<path d="M84.4464 14.5648C84.6559 11.6913 86.5117 8.66808 87.2151 7.62044C87.2451 7.56057 87.3049 7.54561 87.3648 7.56057C87.3648 7.56057 87.3698 7.56057 87.3798 7.56057C87.4396 7.57554 87.4845 7.62044 87.4995 7.69527C87.6042 8.95244 87.7539 12.4845 86.5566 15.1036C86.5566 15.1036 85.8831 16.705 85.0899 16.4954C85.0799 16.4954 85.075 16.4954 85.075 16.4954C85.065 16.4954 85.055 16.4954 85.045 16.4954C84.2518 16.2859 84.4464 14.5648 84.4464 14.5648Z" fill="white"/>
<path d="M111.641 15.836C112.494 13.0822 114.978 10.5529 115.891 9.68488C115.936 9.63998 116.011 9.63998 116.071 9.65495C116.131 9.69985 116.161 9.75971 116.161 9.81958C115.981 11.0767 115.338 14.5639 113.587 16.8388C113.587 16.8388 112.569 18.2456 111.835 17.8714C111.835 17.8714 111.83 17.8664 111.82 17.8565C111.811 17.8565 111.806 17.8565 111.806 17.8565C111.072 17.4673 111.641 15.836 111.641 15.836Z" fill="white"/>
</svg>
