<?xml version="1.0" encoding="UTF-8" standalone="no"?>
<svg
   width="1714.3688"
   height="129.08972"
   viewBox="0 0 1714.3688 129.08972"
   fill="none"
   version="1.1"
   id="svg26"
   xmlns="http://www.w3.org/2000/svg"
   xmlns:svg="http://www.w3.org/2000/svg">
  <defs
     id="defs26" />
  <path
     d="M 0,0 V 124.8993 H 124.899 V 0 Z M 9.59017,114.00405 V 9.5334 c 57.71108,0 104.47058,46.7589 104.47058,104.47065 z M 114.117,36.1473 H 87.50325 V 9.5334 H 114.117 Z"
     fill="#b49759"
     id="path14"
     style="stroke-width:7.5" />
  <path
     fill-rule="evenodd"
     clip-rule="evenodd"
     d="m 436.3815,85.12305 47.15625,0.057 0.057,-45.3405 z m 89.20575,38.75775 -43.29825,-0.0562 c -5.277,-8.56875 -21.22275,-16.5705 -36.4875,-16.00275 -16.797,0 -33.594,9.42 -42.7305,15.94575 l -54.19275,-0.057 132.6165,-118.656825 44.20575,0.0567 -0.11325,113.436375 z"
     fill="#F6F6F6"
     id="path15"
     style="fill:#84898b;fill-opacity:1;stroke-width:7.5" />
  <path
     d="m 582.61425,62.87355 v 2.27025 c 0,15.26475 9.98775,33.1395 38.19075,33.1395 31.72125,0 35.523,-17.0235 35.9205,-20.4855 l 0.11325,-0.9645 36.7155,0.057 v 1.5885 c 0,24.174 -18.216,49.9935 -69.231,49.93725 H 616.776 c -25.2525,0 -44.376,-7.20675 -56.85975,-21.39375 -12.71175,-14.3565 -14.5845,-31.43775 -14.5845,-40.347 v -4.88025 c 0,-8.9655 1.92975,-26.103 14.64075,-40.176225 C 572.4,7.8294 591.5805,0.8496 616.833,0.8496 h 7.54725 c 23.66324,0 41.82224,5.33415 53.90924,15.7188 9.81676,8.4552 15.26476,20.37165 15.26476,33.53715 v 1.419 l -36.7155,-0.057 -0.11325,-0.90825 C 656.442,48.51705 652.98,30.8688 620.69175,30.8118 c -11.406,0.11325 -38.0205,3.17775 -38.0775,32.06175 z"
     fill="#F6F6F6"
     id="path16"
     style="fill:#84898b;fill-opacity:1;stroke-width:7.5" />
  <path
     d="M 851.98875,21.336975 C 839.11125,7.831275 819.36374,0.96495 793.31624,0.908175 h -7.2075 c -26.0475,0 -45.79499,6.809625 -58.73249,20.372025 -9.99,10.49835 -15.5475,24.9681 -15.5475,40.74435 v 4.8795 c 0,29.9055 19.46249,61.797 74.1675,61.854 h 7.2075 c 54.7575,0.057 74.28,-31.8345 74.28,-61.74 V 62.1378 c 0,-15.8325 -5.505,-30.303 -15.495,-40.800825 z m -62.3625,77.289075 c -36.7125,-0.057 -40.62751,-23.09625 -40.62751,-33.027 v -2.2695 c 0,-28.26 25.47751,-32.45925 40.68001,-32.40225 33.6,0.05625 40.635,17.7045 40.635,32.5155 v 2.27025 c -0.06,12.3135 -5.3325,32.96925 -40.6875,32.913 z"
     fill="#F6F6F6"
     id="path17"
     style="fill:#84898b;fill-opacity:1;stroke-width:7.5" />
  <path
     d="m 1023.7087,3.966 -0.06,62.93205 c 0,28.03275 -11.46,61.5135 -65.76756,61.4565 h -4.65749 c -25.9875,0 -44.6025,-7.377 -55.2675,-21.7905 -7.32,-9.8745 -10.8375,-22.926 -10.8375,-39.77925 l 0.0525,-62.932275 35.07,0.05678 -0.0525,62.1375 c 0,21.62025 10.7775,32.11875 32.97,32.175 h 0.795 c 14.01,0 32.685,-3.291 32.73749,-32.118 l 0.06,-62.1378 z"
     fill="#F6F6F6"
     id="path18"
     style="fill:#84898b;fill-opacity:1;stroke-width:7.5" />
  <path
     d="m 1179.0788,85.3473 v 1.986 c 0,28.03275 -20.8875,41.652 -63.7875,41.595 h -4.7625 c -53.5125,-0.0563 -64.7475,-20.4855 -64.695,-39.43875 v -2.8935 l 38.76,0.05625 0.1125,0.9645 c 0.345,4.086 1.4775,16.05975 27.525,16.05975 h 1.1325 c 24.285,0 27.5774,-8.4555 27.5774,-15.0945 0,-6.52575 -3.9674,-10.725 -23.8274,-11.52 l -16.1775,-0.51075 c -44.4301,-1.47525 -53.7375,-20.769 -53.7375,-36.65775 v -1.476 c 0,-15.94545 6.4125,-37.111875 61.6799,-37.0551 h 5.565 c 42.5026,0.0567 64.9726,10.157625 64.9726,35.1831 v 2.8935 l -38.19,-0.05625 -0.1125,-0.90825 c -0.57,-3.7455 -4.5976,-12.087 -28.9426,-12.087 h -1.6424 c -21.225,0 -25.5975,5.0505 -25.5975,10.89525 0,4.709999 2.67,9.703499 22.5299,10.554749 l 16.8526,0.681 c 38.3625,1.64625 54.765,12.654751 54.765,36.828751 z"
     fill="#F6F6F6"
     id="path19"
     style="fill:#84898b;fill-opacity:1;stroke-width:7.5" />
  <path
     d="m 1714.0238,85.50855 v 1.986 c 0,28.03275 -20.88,41.652 -63.78,41.595 h -4.7701 c -53.5049,-0.0563 -64.7474,-20.4855 -64.6875,-39.43875 v -2.89425 l 38.7601,0.057 0.1125,0.9645 c 0.3375,4.086 1.4775,16.05975 27.5175,16.05975 h 1.14 c 24.285,0 27.5775,-8.4555 27.5775,-15.0945 0,-6.5265 -3.975,-10.72575 -23.835,-11.52 l -16.17,-0.51075 c -44.4375,-1.47525 -53.7375,-20.769 -53.7375,-36.65775 v -1.476 c 0,-15.945525 6.4125,-37.112025 61.68,-37.05525 h 5.565 c 42.5024,0.05678 64.9725,10.157625 64.9725,35.1825 v 2.89425 l -38.19,-0.05625 -0.1125,-0.90825 c -0.57,-3.7455 -4.5975,-12.087 -28.9425,-12.087 h -1.6501 c -21.2174,0 -25.5899,5.0505 -25.5899,10.89525 0,4.71 2.67,9.7035 22.53,10.55475 l 16.8524,0.681 c 38.3626,1.6455 54.7576,12.65475 54.7576,36.82875 z"
     fill="#F6F6F6"
     id="path20"
     style="fill:#84898b;fill-opacity:1;stroke-width:7.5" />
  <path
     d="m 1327.6388,5.3283 -0.053,28.941 -47.1,-0.057 -0.1125,93.23475 -35.7,-0.057 0.06,-93.23475 h -47.1 V 5.214825 Z"
     fill="#F6F6F6"
     id="path21"
     style="fill:#84898b;fill-opacity:1;stroke-width:7.5" />
  <path
     d="m 1388.7037,5.390625 h -35.865 V 127.5093 h 35.865 z"
     fill="#F6F6F6"
     id="path22"
     style="fill:#84898b;fill-opacity:1;stroke-width:7.5" />
  <path
     d="m 1450.0988,62.99055 v 2.27025 c 0,15.26475 9.9899,33.1395 38.19,33.1395 31.725,0 35.52,-17.0235 35.9175,-20.4855 l 0.12,-0.9645 36.7125,0.057 v 1.5885 c 0,24.174 -18.2175,49.99425 -69.2325,49.93725 h -7.545 c -25.2525,0 -44.3775,-7.20675 -56.8575,-21.39375 -12.7125,-14.3565 -14.5875,-31.437 -14.5875,-40.34625 V 61.9128 c 0,-8.96625 1.9275,-26.10375 14.64,-40.17675 12.4275,-13.789425 31.605,-20.769225 56.8575,-20.769225 h 7.5525 c 23.6625,0 41.82,5.33415 53.91,15.718725 9.8175,8.455275 15.2625,20.37225 15.2625,33.537 v 1.419 l -36.7125,-0.057 -0.12,-0.9075 c -0.2775,-2.043 -3.7425,-19.69125 -36.03,-19.74825 -11.46,0.114 -38.0176,3.23475 -38.0775,32.06175 z"
     fill="#F6F6F6"
     id="path23"
     style="fill:#84898b;fill-opacity:1;stroke-width:7.5" />
  <path
     d="m 366.92175,68.8338 -89.7735,-0.057 V 39.15555 L 402.9555,39.2688 Z"
     fill="#F6F6F6"
     id="path24"
     style="fill:#84898b;fill-opacity:1;stroke-width:7.5" />
  <path
     fill-rule="evenodd"
     clip-rule="evenodd"
     d="m 316.02075,94.5453 -1.0215,30.246 -112.188,-0.057 0.057,-118.713825 43.3545,0.05678 -0.057,88.2978"
     fill="#F6F6F6"
     id="path26"
     style="fill:#84898b;fill-opacity:1;stroke-width:7.5" />
</svg>
