<svg width="229" height="56" viewBox="0 0 229 56" fill="none" xmlns="http://www.w3.org/2000/svg">
<path fill-rule="evenodd" clip-rule="evenodd" d="M119.517 22.417H126.279L125.329 27.5418C125.193 28.297 125.134 28.84 125.159 29.1624C125.193 29.4934 125.295 29.7649 125.473 29.9855C125.677 30.257 126.101 30.4606 126.712 30.6049C127.331 30.7491 128.104 30.817 129.028 30.817C129.953 30.817 130.751 30.7491 131.421 30.6049C132.083 30.4606 132.584 30.257 132.898 29.9855C133.161 29.7649 133.364 29.4934 133.517 29.1624C133.661 28.8315 133.814 28.297 133.95 27.5418L134.085 26.8206L134.9 22.417H141.645L140.61 27.9915C140.398 29.1455 140.076 29.994 139.643 30.5455C139.21 31.097 138.574 31.5637 137.717 31.954C136.792 32.3782 135.562 32.7006 134.043 32.9128C132.516 33.1249 130.7 33.2352 128.579 33.2352C126.458 33.2352 124.667 33.1334 123.233 32.9128C121.791 32.7006 120.679 32.3782 119.899 31.954C119.203 31.5637 118.736 31.097 118.499 30.5455C118.27 29.994 118.261 29.1455 118.473 27.9915L118.677 26.897L119.508 22.4255L119.517 22.417Z" fill="#0D0E0E"/>
<path fill-rule="evenodd" clip-rule="evenodd" d="M147.373 32.9467L148.909 24.9031H143.258L143.733 22.417H161.908L161.432 24.9031H155.781L154.246 32.9467H147.373Z" fill="#0D0E0E"/>
<path fill-rule="evenodd" clip-rule="evenodd" d="M188.354 32.9466L190.306 22.3066H198.333L196.381 32.9466H188.354Z" fill="#0D0E0E"/>
<path fill-rule="evenodd" clip-rule="evenodd" d="M200.165 32.9467L202.38 22.417H209.855L208.845 27.194L218.62 22.417H227.41L216.091 27.5503L226.086 32.9467H216.66L208.633 28.2206L207.632 32.9467H200.165Z" fill="#0D0E0E"/>
<path fill-rule="evenodd" clip-rule="evenodd" d="M162.519 32.9464L164.19 22.4082H172.59C175.874 22.4082 178.165 22.4591 179.437 22.5694C180.71 22.6797 181.805 22.8579 182.704 23.1124C183.714 23.4009 184.477 23.7658 184.978 24.207C185.479 24.6567 185.682 25.1488 185.597 25.6834C185.47 26.4979 184.808 27.1597 183.603 27.6773C182.407 28.1864 180.71 28.5258 178.546 28.6955L185.894 32.9464H176.816L170.715 28.8227L170.062 32.9464H162.527H162.519ZM170.936 27.3888H172.429C174.16 27.3888 175.441 27.287 176.273 27.0749C177.104 26.8627 177.554 26.5318 177.622 26.0821C177.706 25.5561 177.392 25.1827 176.68 24.9537C175.976 24.7331 174.737 24.6143 172.98 24.6143H171.368L170.927 27.3888H170.936Z" fill="#0D0E0E"/>
<path fill-rule="evenodd" clip-rule="evenodd" d="M64.043 32.9466L66.1387 22.3066H76.329L83.7109 28.4327L84.9157 22.3066H93.2648L91.169 32.9466H81.4963L73.3848 26.7188L72.163 32.9466H64.043Z" fill="#0D0E0E"/>
<path fill-rule="evenodd" clip-rule="evenodd" d="M95.293 32.9466L97.1427 22.3066H115.911L115.453 24.9115H103.549L103.328 26.1842H112.967L112.509 28.806H102.87L102.632 30.206H115.122L114.647 32.9466H95.293Z" fill="#0D0E0E"/>
<path d="M55.6263 27.6691C55.6263 42.9503 43.2384 55.3382 27.9572 55.3382C12.676 55.3382 0.288086 42.9503 0.288086 27.6691C0.288086 12.3879 12.676 0 27.9572 0C43.2384 0 55.6263 12.3879 55.6263 27.6691Z" fill="#009982"/>
<path d="M16.969 37.5537C16.4854 37.5537 16.0017 37.3331 15.6878 36.9174C13.6599 34.2362 12.5908 31.0374 12.5908 27.6689C12.5908 24.5974 13.4987 21.6362 15.2042 19.0992C15.4502 18.7428 15.8235 18.4968 16.2478 18.4204C16.672 18.344 17.1132 18.4374 17.4611 18.6919L23.2478 22.8156C23.969 23.3331 24.1387 24.3259 23.6211 25.0471C23.1035 25.7683 22.1108 25.938 21.3811 25.4204L17.0284 22.3234C16.2139 23.978 15.7896 25.8022 15.7896 27.6774C15.7896 30.3416 16.6381 32.8701 18.2417 34.9913C18.7763 35.6956 18.632 36.7053 17.9278 37.2398C17.6393 37.4604 17.2999 37.5622 16.9605 37.5622" fill="white"/>
<path d="M38.9453 37.5539C38.6229 37.5539 38.3005 37.4606 38.0205 37.2569L32.6411 33.4218C31.9199 32.9042 31.7502 31.903 32.2593 31.1818C32.7684 30.4606 33.7781 30.2909 34.4993 30.8084L38.5296 33.6763C39.5732 31.8521 40.1162 29.7987 40.1162 27.6606C40.1162 25.2169 39.4035 22.8666 38.0375 20.8642C37.5453 20.1345 37.732 19.1333 38.4702 18.6412C39.1999 18.1491 40.2011 18.3357 40.6932 19.0739C42.4156 21.6109 43.3235 24.5806 43.3235 27.6691C43.3235 31.0375 42.2544 34.2363 40.2265 36.9175C39.9126 37.3333 39.429 37.5539 38.9453 37.5539Z" fill="white"/>
<path d="M36.349 14.7973C33.8545 13.1682 30.9526 12.3027 27.9575 12.3027C24.9623 12.3027 22.052 13.1682 19.5575 14.7973C18.8193 15.2809 18.6072 16.2736 19.0908 17.0203C19.3963 17.487 19.9138 17.7415 20.4314 17.7415C20.7284 17.7415 21.0338 17.6567 21.3054 17.4785C22.8326 16.4773 24.5466 15.8494 26.3538 15.6118V41.6773C26.3538 42.5597 27.0751 43.2809 27.9575 43.2809C28.8399 43.2809 29.5611 42.5597 29.5611 41.6773V15.6203C31.3599 15.8579 33.0738 16.4858 34.6011 17.4785C35.3478 17.9621 36.3405 17.75 36.8242 17.0118C37.3078 16.2736 37.1041 15.2724 36.3575 14.7888" fill="white"/>
<path d="M27.9573 50.4592C15.3912 50.4592 5.16699 40.235 5.16699 27.6689C5.16699 15.1028 15.3912 4.87012 27.9573 4.87012C40.5234 4.87012 50.7476 15.0944 50.7476 27.6689C50.7476 40.2435 40.5234 50.4592 27.9573 50.4592ZM27.9573 8.07739C17.1561 8.07739 8.36578 16.8677 8.36578 27.6689C8.36578 38.4701 17.1561 47.2604 27.9573 47.2604C38.7585 47.2604 47.5403 38.4701 47.5403 27.6689C47.5403 16.8677 38.7585 8.07739 27.9573 8.07739Z" fill="white"/>
</svg>
